# xmcd
#
# Track frame offsets:
#	150
#	7350
#	17052
#	42230
#	57180
#	71385
#	82762
#	94432
#	114127
#	128200
#	142565
#	162097
#	174457
#	192015
#	206732
#	219277
#	236360
#	250050
#
# Disc length: 3494 seconds
# Revision: 0
# Processed by: cddbd v1.5.2PL0 Copyright (c) Steve Scherf et al.
# Submitted via: dBpowerAMP V12.0
#
DISCID=e30da412
DTITLE=Various Artist - Country By The Grace Of God Disc 4
DYEAR=2007
DGENRE=Country
TTITLE0=Roy Cark - Old Time Religion
TTITLE1=Red Foley - The Church In The Wildwood
TTITLE2=Willie Nelson - Whispering Hope
TTITLE3=Crystal Gayle - I Need Thee Every Hour
TTITLE4=Glen Campbell - Sweet Hour Of Prayer
TTITLE5=Loretta Lynn - Living In God's Country
TTITLE6=The Statler Brothers - Just A Little Talk With Jesus
TTITLE7=Tennessee Ernie Ford - Did You Think To Pray
TTITLE8=Sonny James &amp - One More River To Cross
TTITLE9=Loretta Lynn - Softly And Tenderly
TTITLE10=John Conlee - His Eye Is On The Sparrow
TTITLE11=Merle Haggard - Suppertime
TTITLE12=Randy Travis - Were You There
TTITLE13=Larry Gatlin - It Must Have Rained In Heaven
TTITLE14=Jan Howard - Just As I Am
TTITLE15=Kenny Rogers - Love Lifted Me
TTITLE16=The Jordanaires - Nobody Knows The Trouble I Have Seen
TTITLE17=Ernest Tubb - I Saw The Light
EXTD=
EXTT0=
EXTT1=
EXTT2=
EXTT3=
EXTT4=
EXTT5=
EXTT6=
EXTT7=
EXTT8=
EXTT9=
EXTT10=
EXTT11=
EXTT12=
EXTT13=
EXTT14=
EXTT15=
EXTT16=
EXTT17=
PLAYORDER=
